<?xml version="1.0" encoding="UTF-8" standalone="no"?>
<!DOCTYPE svg PUBLIC "-//W3C//DTD SVG 1.1//EN" "http://www.w3.org/Graphics/SVG/1.1/DTD/svg11.dtd">
<svg xmlns:xl="http://www.w3.org/1999/xlink" xmlns="http://www.w3.org/2000/svg" xmlns:dc="http://purl.org/dc/elements/1.1/" version="1.1" viewBox="0 0 32 32" width="32" height="32">
  <defs/>
  <metadata> Produced by OmniGraffle 7.18\n2020-12-07 21:33:43 +0000</metadata>
  <g id="photos-favicon" fill="none" stroke-opacity="1" fill-opacity="1" stroke="none" stroke-dasharray="none">
    <title>photos-favicon</title>
    <g id="photos-favicon_Layer_1">
      <title>Layer 1</title>
      <g id="Graphic_93">
        <path d="M 27.31369 4.6863097 C 21.06531 -1.5621032 10.93469 -1.5621032 4.6863097 4.6863097 C -1.5621032 10.93469 -1.5621032 21.06531 4.6863097 27.31369 C 10.93469 33.562103 21.06531 33.562103 27.31369 27.31369 C 33.562103 21.06531 33.562103 10.93469 27.31369 4.6863097 M 26.14331 5.8566914 C 31.745334 11.458688 31.745334 20.541312 26.14331 26.14331 C 20.541312 31.745334 11.458688 31.745334 5.8566914 26.14331 C .25466608 20.541312 .25466608 11.458688 5.8566914 5.8566914 C 11.458688 .25466608 20.541312 .25466608 26.14331 5.8566914" fill="#009fe3"/>
      </g>
      <g id="Graphic_90">
        <title>Camera</title>
        <path d="M 12.782351 14.190351 L 18.887951 3.617551 C 17.991951 3.425551 17.070351 3.310351 16.110351 3.310351 C 13.038351 3.310351 10.222351 4.398351 8.020751 6.190351 L 12.705551 14.318351 L 12.782351 14.190351 Z M 28.32155 12.270351 C 27.14395 8.532751 24.28955 5.537551 20.64155 4.155151 L 15.956751 12.270351 L 28.32155 12.270351 Z M 28.65435 13.550351 L 19.067151 13.550351 L 19.438351 14.190351 L 25.53115 24.75035 C 27.63035 22.47195 28.91035 19.451151 28.91035 16.110351 C 28.91035 15.227151 28.82075 14.382351 28.65435 13.550351 Z M 11.681551 16.110351 L 6.689551 7.470351 C 4.603151 9.748751 3.310351 12.769551 3.310351 16.110351 C 3.310351 16.993551 3.399951 17.838351 3.566351 18.670351 L 13.153551 18.670351 L 11.681551 16.110351 Z M 3.899151 19.95035 C 5.076751 23.68795 7.931151 26.68315 11.579151 28.06555 L 16.263951 19.95035 L 3.899151 19.95035 Z M 18.324751 19.95035 L 13.332751 28.60315 C 14.228751 28.79515 15.150351 28.91035 16.110351 28.91035 C 19.182351 28.91035 21.99835 27.82235 24.19995 26.03035 L 19.515151 17.902351 L 18.324751 19.95035 Z" fill="#009fe3"/>
      </g>
    </g>
  </g>
</svg>
