<?xml version="1.0" encoding="UTF-8" standalone="no"?>
<!DOCTYPE svg PUBLIC "-//W3C//DTD SVG 1.1//EN" "http://www.w3.org/Graphics/SVG/1.1/DTD/svg11.dtd">
<svg xmlns:xl="http://www.w3.org/1999/xlink" xmlns="http://www.w3.org/2000/svg" xmlns:dc="http://purl.org/dc/elements/1.1/" version="1.1" viewBox="0 0 16 16" width="16" height="16">
  <defs/>
  <metadata> Produced by OmniGraffle 7.18\n2020-12-07 21:33:43 +0000</metadata>
  <g id="photos-pinned-svg" fill="none" stroke-opacity="1" fill-opacity="1" stroke="none" stroke-dasharray="none">
    <title>photos-pinned-svg</title>
    <g id="photos-pinned-svg_Layer_1">
      <title>Layer 1</title>
      <g id="Graphic_88">
        <path d="M 13.656845 2.3431548 C 10.532655 -.7810516 5.467345 -.7810516 2.3431548 2.3431548 C -.7810516 5.467345 -.7810516 10.532655 2.3431548 13.656845 C 5.467345 16.781052 10.532655 16.781052 13.656845 13.656845 C 16.781052 10.532655 16.781052 5.467345 13.656845 2.3431548 M 13.071654 2.9283457 C 15.872667 5.729344 15.872667 10.270656 13.071654 13.071654 C 10.270656 15.872667 5.729344 15.872667 2.9283457 13.071654 C .12733304 10.270656 .12733304 5.729344 2.9283457 2.9283457 C 5.729344 .12733304 10.270656 .12733304 13.071654 2.9283457" fill="black"/>
      </g>
      <g id="Graphic_87">
        <title>Camera</title>
        <path d="M 6.3911756 7.095176 L 9.443976 1.8087756 C 8.995976 1.7127756 8.535176 1.6551756 8.055176 1.6551756 C 6.5191756 1.6551756 5.1111756 2.1991756 4.0103756 3.0951756 L 6.3527756 7.159176 L 6.3911756 7.095176 Z M 14.160776 6.1351756 C 13.571976 4.2663756 12.144776 2.7687756 10.320776 2.0775756 L 7.978376 6.1351756 L 14.160776 6.1351756 Z M 14.327176 6.7751756 L 9.533576 6.7751756 L 9.719176 7.095176 L 12.765576 12.375176 C 13.815176 11.235976 14.455176 9.725576 14.455176 8.055176 C 14.455176 7.613576 14.410376 7.191176 14.327176 6.7751756 Z M 5.8407756 8.055176 L 3.3447756 3.7351756 C 2.3015756 4.8743756 1.6551756 6.3847756 1.6551756 8.055176 C 1.6551756 8.496776 1.6999756 8.919176 1.7831756 9.335176 L 6.5767756 9.335176 L 5.8407756 8.055176 Z M 1.9495756 9.975176 C 2.5383756 11.843976 3.9655756 13.341576 5.7895756 14.032776 L 8.131976 9.975176 L 1.9495756 9.975176 Z M 9.162376 9.975176 L 6.6663756 14.301576 C 7.114376 14.397576 7.575176 14.455176 8.055176 14.455176 C 9.591176 14.455176 10.999176 13.911176 12.099976 13.015176 L 9.757576 8.951176 L 9.162376 9.975176 Z" fill="black"/>
      </g>
    </g>
  </g>
</svg>
